<mxfile host="Electron" modified="2023-05-07T10:19:23.174Z" agent="Mozilla/5.0 (X11; Linux x86_64) AppleWebKit/537.36 (KHTML, like Gecko) draw.io/21.1.2 Chrome/106.0.5249.199 Electron/21.4.3 Safari/537.36" etag="W__J56Vx5zs8N8wL4cZl" version="21.1.2" type="device">
  <diagram name="Page-1" id="VRwKI5nqOp4LMYLlIFew">
    <mxGraphModel dx="1434" dy="1939" grid="1" gridSize="10" guides="1" tooltips="1" connect="1" arrows="1" fold="1" page="1" pageScale="1" pageWidth="850" pageHeight="1100" math="0" shadow="0">
      <root>
        <mxCell id="0" />
        <mxCell id="1" parent="0" />
        <mxCell id="7THMI8C-0NpaDrbQwGX8-1" value="Repository" style="rounded=1;whiteSpace=wrap;html=1;" vertex="1" parent="1">
          <mxGeometry x="130" y="110" width="120" height="60" as="geometry" />
        </mxCell>
        <mxCell id="7THMI8C-0NpaDrbQwGX8-2" value="GitTea" style="rounded=1;whiteSpace=wrap;html=1;" vertex="1" parent="1">
          <mxGeometry x="40" y="210" width="120" height="60" as="geometry" />
        </mxCell>
        <mxCell id="7THMI8C-0NpaDrbQwGX8-3" value="RdxSvn" style="rounded=1;whiteSpace=wrap;html=1;" vertex="1" parent="1">
          <mxGeometry x="210" y="210" width="120" height="60" as="geometry" />
        </mxCell>
        <mxCell id="7THMI8C-0NpaDrbQwGX8-4" value="" style="endArrow=none;dashed=1;html=1;dashPattern=1 3;strokeWidth=2;rounded=0;exitX=0.5;exitY=0;exitDx=0;exitDy=0;entryX=0.5;entryY=1;entryDx=0;entryDy=0;" edge="1" parent="1" source="7THMI8C-0NpaDrbQwGX8-2" target="7THMI8C-0NpaDrbQwGX8-1">
          <mxGeometry width="50" height="50" relative="1" as="geometry">
            <mxPoint x="400" y="460" as="sourcePoint" />
            <mxPoint x="450" y="410" as="targetPoint" />
          </mxGeometry>
        </mxCell>
        <mxCell id="7THMI8C-0NpaDrbQwGX8-5" value="" style="endArrow=none;dashed=1;html=1;dashPattern=1 3;strokeWidth=2;rounded=0;exitX=0.5;exitY=0;exitDx=0;exitDy=0;" edge="1" parent="1" source="7THMI8C-0NpaDrbQwGX8-3">
          <mxGeometry width="50" height="50" relative="1" as="geometry">
            <mxPoint x="110" y="220" as="sourcePoint" />
            <mxPoint x="190" y="170" as="targetPoint" />
          </mxGeometry>
        </mxCell>
        <mxCell id="7THMI8C-0NpaDrbQwGX8-6" value="JiraOutIface" style="rounded=1;whiteSpace=wrap;html=1;" vertex="1" parent="1">
          <mxGeometry x="420" y="110" width="120" height="60" as="geometry" />
        </mxCell>
        <mxCell id="7THMI8C-0NpaDrbQwGX8-7" value="Project" style="rounded=1;whiteSpace=wrap;html=1;" vertex="1" parent="1">
          <mxGeometry x="280" y="-20" width="120" height="60" as="geometry" />
        </mxCell>
        <mxCell id="7THMI8C-0NpaDrbQwGX8-8" value="" style="endArrow=classic;html=1;rounded=0;exitX=0.5;exitY=1;exitDx=0;exitDy=0;entryX=0.5;entryY=0;entryDx=0;entryDy=0;" edge="1" parent="1" source="7THMI8C-0NpaDrbQwGX8-7" target="7THMI8C-0NpaDrbQwGX8-1">
          <mxGeometry width="50" height="50" relative="1" as="geometry">
            <mxPoint x="400" y="250" as="sourcePoint" />
            <mxPoint x="450" y="200" as="targetPoint" />
          </mxGeometry>
        </mxCell>
        <mxCell id="7THMI8C-0NpaDrbQwGX8-9" value="" style="endArrow=classic;html=1;rounded=0;exitX=0.5;exitY=1;exitDx=0;exitDy=0;entryX=0.5;entryY=0;entryDx=0;entryDy=0;" edge="1" parent="1" source="7THMI8C-0NpaDrbQwGX8-7" target="7THMI8C-0NpaDrbQwGX8-6">
          <mxGeometry width="50" height="50" relative="1" as="geometry">
            <mxPoint x="400" y="250" as="sourcePoint" />
            <mxPoint x="450" y="200" as="targetPoint" />
          </mxGeometry>
        </mxCell>
        <mxCell id="7THMI8C-0NpaDrbQwGX8-10" value="" style="rounded=0;whiteSpace=wrap;html=1;align=left;" vertex="1" parent="1">
          <mxGeometry x="710" y="-50" width="300" height="300" as="geometry" />
        </mxCell>
        <mxCell id="7THMI8C-0NpaDrbQwGX8-11" value="Task.CheckProjectViolations" style="text;html=1;strokeColor=none;fillColor=none;align=center;verticalAlign=middle;whiteSpace=wrap;rounded=0;" vertex="1" parent="1">
          <mxGeometry x="830" y="-50" width="60" height="30" as="geometry" />
        </mxCell>
        <mxCell id="7THMI8C-0NpaDrbQwGX8-12" value="Cache entries" style="rounded=0;whiteSpace=wrap;html=1;" vertex="1" parent="1">
          <mxGeometry x="720" width="280" height="40" as="geometry" />
        </mxCell>
        <mxCell id="7THMI8C-0NpaDrbQwGX8-13" value="Handle repositories" style="rounded=0;whiteSpace=wrap;html=1;" vertex="1" parent="1">
          <mxGeometry x="720" y="50" width="280" height="40" as="geometry" />
        </mxCell>
        <mxCell id="7THMI8C-0NpaDrbQwGX8-14" value="Handle Jira" style="rounded=0;whiteSpace=wrap;html=1;" vertex="1" parent="1">
          <mxGeometry x="720" y="100" width="280" height="40" as="geometry" />
        </mxCell>
        <mxCell id="7THMI8C-0NpaDrbQwGX8-15" value="Collect statistics" style="rounded=0;whiteSpace=wrap;html=1;" vertex="1" parent="1">
          <mxGeometry x="720" y="150" width="280" height="40" as="geometry" />
        </mxCell>
        <mxCell id="7THMI8C-0NpaDrbQwGX8-16" value="Generate report" style="rounded=0;whiteSpace=wrap;html=1;" vertex="1" parent="1">
          <mxGeometry x="720" y="200" width="280" height="40" as="geometry" />
        </mxCell>
        <mxCell id="7THMI8C-0NpaDrbQwGX8-17" value="Task scheduler" style="rounded=0;whiteSpace=wrap;html=1;" vertex="1" parent="1">
          <mxGeometry x="800" y="-160" width="120" height="60" as="geometry" />
        </mxCell>
        <mxCell id="7THMI8C-0NpaDrbQwGX8-18" value="" style="endArrow=classic;html=1;rounded=0;exitX=0.5;exitY=1;exitDx=0;exitDy=0;entryX=0.5;entryY=0;entryDx=0;entryDy=0;" edge="1" parent="1" source="7THMI8C-0NpaDrbQwGX8-17" target="7THMI8C-0NpaDrbQwGX8-11">
          <mxGeometry width="50" height="50" relative="1" as="geometry">
            <mxPoint x="760" y="220" as="sourcePoint" />
            <mxPoint x="810" y="170" as="targetPoint" />
          </mxGeometry>
        </mxCell>
      </root>
    </mxGraphModel>
  </diagram>
</mxfile>
